<svg xmlns="http://www.w3.org/2000/svg" width="50.236" height="50" viewBox="0 0 50.236 50">
  <path id="icon_-_logo_-_w_ventures" data-name="icon - logo - w ventures" d="M19.053,30.836l-2.845,6.851L0,2.716H6.945ZM50.236,1.881H43.29L34.028,23.4,24.7,0,21.764,7.306,34.028,36.843ZM9.092,48.992,7.874,45.873H7.086l1.679,4.09H9.4l1.679-4.09H10.31Zm32.616-1.418c-.78-.187-.966-.328-.966-.642v-.015c0-.269.246-.485.661-.485a1.812,1.812,0,0,1,1.1.418l.379-.537a2.242,2.242,0,0,0-1.471-.507,1.242,1.242,0,0,0-1.382,1.179V47c0,.746.483,1.007,1.344,1.217.75.172.914.328.914.619v.015c0,.3-.275.507-.713.507a1.873,1.873,0,0,1-1.278-.53l-.431.507a2.492,2.492,0,0,0,1.686.649c.847,0,1.441-.455,1.441-1.217v-.015c.008-.657-.43-.97-1.284-1.179Zm-5.3.627H38.44V47.56H36.412V46.5H38.7v-.642h-3v4.067H38.73v-.642H36.412Zm-3.1.194,1.092,1.537H33.56l-1-1.418h-.891v1.418H30.96V45.866h1.8a1.634,1.634,0,0,1,1.166.4,1.227,1.227,0,0,1,.334.873v.015a1.209,1.209,0,0,1-.951,1.239Zm-.594-.507c.505,0,.832-.269.832-.679v-.015c0-.433-.312-.672-.839-.672H31.68v1.366ZM12.984,48.2h2.028V47.56H12.984V46.5h2.288v-.642h-3v4.067H15.3v-.642H12.984Zm6.559.478-2.169-2.813h-.661v4.067h.7V47.045l2.228,2.888h.594V45.866h-.7v2.813Zm9.144-.47c0,.746-.386,1.127-1.018,1.127s-1.025-.4-1.025-1.157V45.866h-.713v2.343A1.6,1.6,0,0,0,27.654,50a1.62,1.62,0,0,0,1.738-1.821V45.873h-.713v2.336Zm-7.227-1.68h1.285v3.4h.713v-3.4h1.285v-.664H21.46Z"/>
</svg>
