<svg xmlns="http://www.w3.org/2000/svg" viewBox="0 0 450.44 180.76"><defs><style>.cls-1{fill:#232e31;}.cls-2{fill:#fec802;}.cls-3{fill:#ff6140;}</style></defs><g id="Layer_2" data-name="Layer 2"><g id="Mitglied_im" data-name="Mitglied im"><path class="cls-1" d="M139.5,90.77a11,11,0,0,0,2.37,2.09,11.82,11.82,0,0,0,6.71,2c4.41,0,6.33-1.93,6.33-4.41,0-6.55-19.26-3.63-19.26-17.06,0-6.05,5.23-11.28,14-11.28a18.51,18.51,0,0,1,9.69,2.64,17.05,17.05,0,0,1,3.25,2.59l-5.51,5.5a14.51,14.51,0,0,0-1.92-1.65A9.49,9.49,0,0,0,150,69.58c-4.18,0-5.78,1.65-5.78,3.85,0,6.55,19.26,3.63,19.26,17.06,0,6.33-5.5,11.84-14.58,11.84a20.81,20.81,0,0,1-11.17-3,14.32,14.32,0,0,1-3.69-3Z"/><path class="cls-1" d="M184.35,70.68h-11V63h30.27v7.71h-11V101.5h-8.26Z"/><path class="cls-1" d="M224.53,63h9.36l14.86,38.53h-8.81l-3.3-8.8H221.78l-3.3,8.8h-8.81Zm9.36,22.3-4.57-12.66h-.22l-4.57,12.66Z"/><path class="cls-1" d="M260.52,63h17.06c8.26,0,13.49,5.23,13.49,12.94a12.24,12.24,0,0,1-3.31,9,9.84,9.84,0,0,1-3.3,2.31l8,14.31h-9.08l-6.88-12.66h-7.7V101.5h-8.26Zm16.79,18.17a5.23,5.23,0,1,0,0-10.46h-8.53V81.14Z"/><path class="cls-1" d="M313.13,70.68h-11V63H332.4v7.71h-11V101.5h-8.26Z"/><path class="cls-1" d="M344,63h8.26V85.54c0,5.5,3.52,9.08,8.53,9.08s8.53-3.58,8.53-9.08V63h8.26V85.54c0,9.91-6.88,16.79-16.79,16.79S344,95.45,344,85.54Z"/><path class="cls-1" d="M391.83,63h16.24c8.2,0,13.76,5.45,13.76,12.94s-5.56,12.93-13.76,12.93h-8V101.5h-8.26Zm16,18.17c3.3,0,5.51-2.15,5.51-5.23s-2.21-5.23-5.51-5.23h-7.7V81.14Z"/><path class="cls-1" d="M133.72,124.7h8.81l10.07,28.35h.22l10.07-28.35h8.81l-14.31,38.53H148Z"/><path class="cls-1" d="M185.45,124.7h28.62v7.71H193.71v7.43h16v7.43h-16v8.25h20.91v7.71H185.45Z"/><path class="cls-1" d="M229.48,124.7h17.06c8.26,0,13.49,5.23,13.49,12.94a12.24,12.24,0,0,1-3.31,9,9.84,9.84,0,0,1-3.3,2.31l8,14.31h-9.08l-6.88-12.66h-7.7v12.66h-8.26Zm16.79,18.17a5.23,5.23,0,0,0,0-10.46h-8.53v10.46Z"/><path class="cls-1" d="M275.71,124.7H292c7.7,0,12.38,4.68,12.38,10.18a8.29,8.29,0,0,1-2.64,6.28,9,9,0,0,1-2.59,1.71,10.48,10.48,0,0,1,3.58,1.87,9.32,9.32,0,0,1,3.58,7.48c0,6-5,11-13.21,11H275.71Zm15.69,14.86c2.8,0,4.4-1.65,4.4-3.85s-1.6-3.85-4.4-3.85H284v7.7Zm1.1,16.51c3.3,0,5.22-1.87,5.22-4.67s-1.92-4.68-5.22-4.68H284v9.35Z"/><path class="cls-1" d="M330.47,124.7h9.36l14.86,38.53h-8.81l-3.3-8.81H327.72l-3.31,8.81h-8.8ZM339.83,147l-4.57-12.66H335L330.47,147Z"/><path class="cls-1" d="M365.69,124.7h7.43l18.71,23.94V124.7h8.26v38.53h-7.43l-18.72-23.94v23.94h-8.25Z"/><path class="cls-1" d="M416,124.7h14c11.83,0,20.36,8.53,20.36,19.27s-8.53,19.26-20.36,19.26H416Zm14,30.82c6.88,0,11.83-5,11.83-11.55s-5-11.56-11.83-11.56H424.3v23.11Z"/><polygon class="cls-2" points="72.03 43.07 64.85 47.07 64.85 166.89 72.03 162.89 72.03 43.07"/><polygon class="cls-3" points="50.42 93.19 43.23 89.18 43.23 176.75 50.42 180.75 50.42 93.19"/><polygon class="cls-1" points="21.62 79.4 28.8 75.39 28.8 130.61 21.62 134.62 21.62 79.4"/><polygon class="cls-1" points="0 144.32 7.18 148.32 7.18 125.42 0 121.41 0 144.32"/><polygon class="cls-1" points="241.47 22.73 134.81 22.73 134.81 20.54 241.94 20.54 241.47 22.73"/><path class="cls-1" d="M262.23,0h1.88l6.82,12.33L282.94,0h2.34l-4.81,22.72H278L282,4.22l-11.65,12-6.52-12-3.93,18.5h-2.43Z"/><path class="cls-1" d="M290.44,7.14h2.27L289.4,22.72h-2.28Zm.74-5.06A1.62,1.62,0,0,1,292.8.49a1.27,1.27,0,0,1,1.3,1.33,1.61,1.61,0,0,1-1.59,1.59A1.28,1.28,0,0,1,291.18,2.08Z"/><path class="cls-1" d="M299.2,9.25h-2.92l.45-2.11h1.79c.87,0,1.39-.55,1.62-1.62L300.92,2H303l-1.11,5.19h3.41l-.45,2.11h-3.41l-1.92,8.92a4.35,4.35,0,0,0-.09.82c0,1.26.81,1.94,2.24,1.94a4.1,4.1,0,0,0,1.17-.13l.51-.13-.48,2.15-.46.13a5.41,5.41,0,0,1-1.07.09c-2.85,0-4.18-1.59-4.18-3.83a6.59,6.59,0,0,1,.16-1.39Z"/><path class="cls-1" d="M308,24.28a4.86,4.86,0,0,0,1,1.59,4.78,4.78,0,0,0,3.64,1.55c3.24,0,5.35-1.94,6.1-5.22l.45-2.08a6.1,6.1,0,0,1-1.39,1.14,6.8,6.8,0,0,1-3.86,1.13c-3.61,0-6.27-2.79-6.27-6.81a8.67,8.67,0,0,1,8.21-8.76,5.72,5.72,0,0,1,4.32,1.68,5.07,5.07,0,0,1,1.1,1.66l.65-3h2.28l-3.28,15.38a8.38,8.38,0,0,1-8.47,7,6.88,6.88,0,0,1-6.37-4ZM320.36,14c0-3-1.88-5-4.55-5-2.92,0-5.94,2.69-5.94,6.65a4.5,4.5,0,0,0,4.48,4.7A6.3,6.3,0,0,0,320.36,14Z"/><path class="cls-1" d="M331.65,0h2.27l-4.8,22.72h-2.27Z"/><path class="cls-1" d="M338.43,7.14h2.28L337.4,22.72h-2.28Zm.75-5.06A1.62,1.62,0,0,1,340.8.49a1.27,1.27,0,0,1,1.3,1.33,1.61,1.61,0,0,1-1.59,1.59A1.28,1.28,0,0,1,339.18,2.08Z"/><path class="cls-1" d="M356.74,20.58a9.53,9.53,0,0,1-1.66,1.23A8.74,8.74,0,0,1,350.67,23a7,7,0,0,1-7.08-7.3,9,9,0,0,1,8.7-8.92A6.49,6.49,0,0,1,359,13.47a7.09,7.09,0,0,1-.16,1.59l-.13.68h-13A5,5,0,0,0,351,20.93a6.84,6.84,0,0,0,4.64-2Zm0-6.79V13.7c0-.1,0-.1,0-.2A4.66,4.66,0,0,0,352,8.93a6.37,6.37,0,0,0-5.9,4.86Z"/><path class="cls-1" d="M374.39,20.58A6.65,6.65,0,0,1,373,21.81,6.84,6.84,0,0,1,369.1,23c-3.79,0-6.62-2.82-6.62-7.14,0-5.25,4.35-9.08,8.41-9.08a6.14,6.14,0,0,1,4.54,1.78,5.65,5.65,0,0,1,1.17,1.79L378.78,0h2.27l-4.81,22.72H374Zm1.27-6.3c0-3.08-2-5.35-4.77-5.35-3.12,0-6.14,3-6.14,7a4.75,4.75,0,0,0,4.68,5A6.7,6.7,0,0,0,375.66,14.28Z"/><path class="cls-1" d="M393,7.14h2.27L392,22.72h-2.27Zm.75-5.06A1.62,1.62,0,0,1,395.39.49a1.27,1.27,0,0,1,1.3,1.33,1.61,1.61,0,0,1-1.59,1.59A1.28,1.28,0,0,1,393.77,2.08Z"/><path class="cls-1" d="M401.14,7.14h2.27L403,8.89a5.46,5.46,0,0,1,1.23-1,6.29,6.29,0,0,1,3.47-1,4.64,4.64,0,0,1,3.54,1.42,4.73,4.73,0,0,1,.94,1.43,6.12,6.12,0,0,1,1.4-1.43,6.53,6.53,0,0,1,4.19-1.42c3.47,0,5.09,2.43,5.09,5.42a9,9,0,0,1-.19,1.85l-1.82,8.63H418.6l1.88-8.83a8.19,8.19,0,0,0,.16-1.52c0-1.92-.94-3.44-3.18-3.44s-4.45,1.78-5.06,4.8l-1.92,9h-2.27l1.85-8.83a8.1,8.1,0,0,0,.16-1.43c0-1.94-.91-3.53-3.14-3.53s-4.48,1.78-5.1,4.8l-1.88,9h-2.27Z"/></g></g></svg>